:SAMPLES-PER-SECOND 30
:FULLY-SPECIFIED
:DEGREES
260
root  -1.05904 38.4023 17.4838 -0.739598 -5.33768 -2.98293
RightUpLeg  -8.32098 0.63364 11.186
RightLeg  23.9855 -3.09863 -7.0128
RightFoot  -17.4042 -0.0583626 -3.12617
RightToes  5.82077e-011 -3.18055e-015 -2.98177e-016
Spine  3.66477 2.80253 13.129
Spine1  5.64906 5.09577 -3.66776
HEad  -11.0018 -4.24129 2.7964
LeftShoulder1  -3.88251e-019 9.70628e-020 -3.87848e-018
LeftArm  -16.9897 70.2271 -50.9094
LeftForeArm  -6.17881 -0.0809186 -0.619864
LeftHand  -0.863456 -0.819709 17.313
RightShoulder  6.92809 10.1844 33.2107
RightArm  16.9386 -20.6805 35.985
RightForeArm  -17.0324 30.303 -15.532
RightHand  -1.07874 1.29772 -18.3422
LeftUpLeg  -29.6162 1.04683 -2.26128
LeftLeg  62.5642 -3.10193 24.296
LeftFoot  -0.718481 -0.127164 1.1309
LeftToes  1.39127e-010 -3.60802e-011 -7.31315e-011
261
root  -1.10937 38.3976 18.7996 -1.40095 -7.10564 -2.58538
RightUpLeg  -5.14492 0.0680983 10.5097
RightLeg  23.5267 -1.03889 -6.32549
RightFoot  -19.2985 -0.0592667 -2.28257
RightToes  5.82077e-011 -3.18055e-015 -2.98177e-016
Spine  3.9822 3.6002 14.2284
Spine1  5.3461 6.10552 -5.51133
HEad  -11.4744 -4.62786 3.24203
LeftShoulder1  -3.88251e-019 9.70628e-020 -3.87848e-018
LeftArm  -11.4754 72.3076 -44.7058
LeftForeArm  -6.52614 -0.11836 -0.673826
LeftHand  -0.671216 0.00954936 15.7113
RightShoulder  6.76488 10.0789 32.5815
RightArm  17.3616 -16.9633 37.5196
RightForeArm  -17.5757 33.5178 -17.4205
RightHand  -1.20688 1.91056 -18.8243
LeftUpLeg  -30.3694 0.602202 -2.21356
LeftLeg  54.8723 -0.943572 20.8926
LeftFoot  -3.08137 -0.057274 0.580964
LeftToes  1.39127e-010 -3.60802e-011 -7.31315e-011
262
root  -1.17829 38.4023 20.1137 -1.9592 -8.29786 -2.19432
RightUpLeg  -1.93534 -0.312681 9.73756
RightLeg  22.7198 0.489737 -5.77329
RightFoot  -20.6536 -0.0368953 -1.58021
RightToes  5.82077e-011 -3.18055e-015 -2.98177e-016
Spine  3.9749 4.16047 14.5314
Spine1  5.21918 6.62237 -6.69033
HEad  -11.9283 -4.71196 3.61681
LeftShoulder1  -3.88251e-019 9.70628e-020 -3.87848e-018
LeftArm  -5.93053 73.9855 -39.1463
LeftForeArm  -6.15548 -0.18033 -0.992437
LeftHand  -0.519677 0.514017 13.5596
RightShoulder  6.6718 10.0275 32.1995
RightArm  17.4914 -13.4703 38.9235
RightForeArm  -16.7689 35.4669 -18.7066
RightHand  -1.39937 2.93697 -19.1732
LeftUpLeg  -29.9956 0.114626 -2.22892
LeftLeg  44.3354 1.14971 16.5974
LeftFoot  -3.55057 -0.112839 1.22397
LeftToes  1.39127e-010 -3.60802e-011 -7.31315e-011
263
root  -1.27195 38.4993 21.3921 -2.55809 -8.96141 -1.36566
RightUpLeg  1.78074 -0.573138 8.47233
RightLeg  20.624 1.28241 -5.11016
RightFoot  -21.2987 -0.0225187 -1.29227
RightToes  5.82077e-011 -3.18055e-015 -2.98177e-016
Spine  3.77611 4.58047 13.5446
Spine1  5.56534 6.913 -7.53796
HEad  -12.2896 -4.63158 3.80298
LeftShoulder1  -3.88251e-019 9.70628e-020 -3.87848e-018
LeftArm  -0.992466 75.1041 -34.7527
LeftForeArm  -4.45942 -0.266369 -1.42964
LeftHand  -0.407259 0.499854 10.5627
RightShoulder  6.60115 9.97118 31.9447
RightArm  17.292 -10.7472 40.0694
RightForeArm  -15.5 36.4733 -19.4461
RightHand  -1.65934 4.23233 -19.7066
LeftUpLeg  -28.1275 -0.230034 -2.89125
LeftLeg  30.9963 2.44901 11.4605
LeftFoot  -2.93944 -0.0992645 1.03778
LeftToes  1.39127e-010 -3.60802e-011 -7.31315e-011
264
root  -1.33767 38.5664 22.6399 -3.28357 -9.6413 -0.39524
RightUpLeg  5.48843 -1.05778 6.85805
RightLeg  18.4968 2.20362 -4.37377
RightFoot  -22.0449 0.0226729 -0.645115
RightToes  5.82077e-011 -3.18055e-015 -2.98177e-016
Spine  3.81525 4.85589 12.2086
Spine1  6.08339 7.18913 -8.22594
HEad  -12.5885 -4.27696 3.7253
LeftShoulder1  -3.88251e-019 9.70628e-020 -3.87848e-018
LeftArm  2.57365 75.7873 -32.0178
LeftForeArm  -1.55239 -0.358652 -1.874
LeftHand  -0.26927 0.536987 7.0361
RightShoulder  6.55042 9.91209 31.801
RightArm  16.8701 -9.01228 41.1297
RightForeArm  -14.4649 36.7443 -19.686
RightHand  -1.86477 5.09993 -20.3312
LeftUpLeg  -24.9974 -0.992291 -3.43221
LeftLeg  17.1163 3.47102 6.76965
LeftFoot  -2.86313 0.221335 -2.57774
LeftToes  1.39127e-010 -3.60802e-011 -7.31315e-011
265
root  -1.338 38.521 23.9216 -4.0693 -10.5653 0.228832
RightUpLeg  8.63229 -1.9004 5.23503
RightLeg  17.723 3.91685 -3.82515
RightFoot  -22.9363 0.110151 0.421646
RightToes  5.82077e-011 -3.18055e-015 -2.98177e-016
Spine  4.13578 4.91409 11.459
Spine1  6.47074 7.40471 -8.8268
HEad  -12.9011 -3.55221 3.49288
LeftShoulder1  -3.88251e-019 9.70628e-020 -3.87848e-018
LeftArm  3.70909 76.1386 -31.8376
LeftForeArm  1.83789 -0.443284 -2.23905
LeftHand  -0.182015 0.498168 4.75226
RightShoulder  6.57957 9.92296 31.9335
RightArm  16.7344 -8.29259 42.0569
RightForeArm  -14.1833 36.7123 -19.679
RightHand  -1.89019 5.08757 -20.6221
LeftUpLeg  -22.0922 -3.47729 -2.89571
LeftLeg  7.77529 7.06624 4.26299
LeftFoot  -2.83379 0.565748 -6.33901
LeftToes  1.39127e-010 -3.60802e-011 -7.31315e-011
266
root  -1.28731 38.4663 25.2668 -4.67798 -11.449 0.686767
RightUpLeg  11.1017 -2.89188 3.53167
RightLeg  18.0733 6.10856 -3.66012
RightFoot  -23.0501 0.181561 1.2372
RightToes  5.82077e-011 -3.18055e-015 -2.98177e-016
Spine  4.22217 4.8087 10.8469
Spine1  7.03085 7.51726 -9.28771
HEad  -13.1444 -2.6027 3.29279
LeftShoulder1  -3.88251e-019 9.70628e-020 -3.87848e-018
LeftArm  1.21498 75.9824 -35.2988
LeftForeArm  4.77721 -0.498277 -2.42977
LeftHand  -0.229487 -0.0821469 5.25144
RightShoulder  6.75698 10.0539 32.5928
RightArm  17.3755 -8.75528 42.1732
RightForeArm  -14.6963 36.9661 -19.8258
RightHand  -1.79029 4.60902 -20.4567
LeftUpLeg  -20.7274 -5.59818 -2.6675
LeftLeg  5.97857 11.9096 4.21576
LeftFoot  -1.27524 0.568612 -5.62804
LeftToes  1.39127e-010 -3.60802e-011 -7.31315e-011
267
root  -1.20166 38.4466 26.7255 -4.99833 -12.1872 1.38491
RightUpLeg  12.5056 -3.7824 1.36761
RightLeg  20.0071 8.44502 -3.73873
RightFoot  -22.5224 0.31203 2.89869
RightToes  5.82077e-011 -3.18055e-015 -2.98177e-016
Spine  3.59672 4.74053 9.81651
Spine1  7.88566 7.57193 -9.4361
HEad  -13.0515 -1.58681 3.15739
LeftShoulder1  -3.88251e-019 9.70628e-020 -3.87848e-018
LeftArm  -4.86274 75.0959 -42.1262
LeftForeArm  6.40402 -0.498648 -2.36669
LeftHand  -0.361653 -0.626315 7.60114
RightShoulder  7.04774 10.247 33.6963
RightArm  18.6399 -10.6697 41.0976
RightForeArm  -15.2187 37.3123 -20.0399
RightHand  -1.7472 4.41896 -20.349
LeftUpLeg  -20.231 -4.24747 -4.08759
LeftLeg  8.72963 13.2095 5.39303
LeftFoot  2.38859 0.196131 -1.44075
LeftToes  1.39127e-010 -3.60802e-011 -7.31315e-011
268
root  -1.06894 38.43 28.2857 -5.25371 -12.8873 2.50369
RightUpLeg  12.0701 -4.41768 -1.55905
RightLeg  25.1508 10.544 -3.68813
RightFoot  -21.2372 0.555256 7.08726
RightToes  5.82077e-011 -3.18055e-015 -2.98177e-016
Spine  2.68081 4.71334 8.36431
Spine1  8.45429 7.51639 -9.34921
HEad  -12.4571 -0.515344 2.97959
LeftShoulder1  -3.88251e-019 9.70628e-020 -3.87848e-018
LeftArm  -12.8855 73.423 -50.5547
LeftForeArm  6.33741 -0.445582 -2.09405
LeftHand  -0.406087 -0.193509 9.1995
RightShoulder  7.28985 10.3885 34.6356
RightArm  19.84 -14.0744 39.4964
RightForeArm  -14.8565 36.5553 -19.5341
RightHand  -1.84309 4.71638 -20.8262
LeftUpLeg  -19.8688 -1.22284 -6.50557
LeftLeg  12.2916 11.168 6.5245
LeftFoot  5.40492 -0.320419 2.108
LeftToes  1.39127e-010 -3.60802e-011 -7.31315e-011
269
root  -0.88984 38.4483 29.8023 -5.62685 -13.3916 3.91873
RightUpLeg  9.14696 -5.119 -4.86816
RightLeg  33.9182 11.3333 -4.2849
RightFoot  -16.0947 0.323535 11.6719
RightToes  5.82077e-011 -3.18055e-015 -2.98177e-016
Spine  2.39885 4.51937 6.60241
Spine1  8.25444 7.1985 -9.10655
HEad  -11.5909 0.578483 2.67086
LeftShoulder1  -3.88251e-019 9.70628e-020 -3.87848e-018
LeftArm  -20.7447 70.8596 -58.8263
LeftForeArm  4.81539 -0.385329 -1.90281
LeftHand  -0.328987 0.84971 9.23496
RightShoulder  7.35044 10.4235 34.8674
RightArm  20.3775 -18.5549 38.2118
RightForeArm  -13.7407 33.7414 -17.746
RightHand  -1.94179 4.96297 -21.4236
LeftUpLeg  -19.2895 0.13895 -9.12211
LeftLeg  15.288 9.5258 7.88258
LeftFoot  5.21834 -0.561087 3.58284
LeftToes  1.39127e-010 -3.60802e-011 -7.31315e-011
